PathFileType	4	(X/Y/Z)	/Users/niels/Desktop/University/Third Semester/Perception and Action/Exam/Gymnastics Motion Tracking/Code for Gym Tracking/Analyzed Data/Webcam_Backflip/id5_3_baseline_Sports2D/id5_3_baseline_Sports2D_px_person00.trc
DataRate	CameraRate	NumFrames	NumMarkers	Units	OrigDataRate	OrigDataStartFrame	OrigNumFrames
29.8125	29.8125	8	22	m	29.8125	80	160
Frame#	Time	Hip			RHip			RKnee			RAnkle			RBigToe			RSmallToe			RHeel			LHip			LKnee			LAnkle			LBigToe			LSmallToe			LHeel			Neck			Head			Nose			RShoulder			RElbow			RWrist			LShoulder			LElbow			LWrist		
		X1	Y1	Z1	X2	Y2	Z2	X3	Y3	Z3	X4	Y4	Z4	X5	Y5	Z5	X6	Y6	Z6	X7	Y7	Z7	X8	Y8	Z8	X9	Y9	Z9	X10	Y10	Z10	X11	Y11	Z11	X12	Y12	Z12	X13	Y13	Z13	X14	Y14	Z14	X15	Y15	Z15	X16	Y16	Z16	X17	Y17	Z17	X18	Y18	Z18	X19	Y19	Z19	X20	Y20	Z20	X21	Y21	Z21	X22	Y22	Z22
80	2.683438155136268	0.8188242589647802	-0.49377307348649235	0.0	0.8182050776182419	-0.49277038612419893	0.0	0.8714212741230384	-0.588911560468814	0.0	0.9144985019755232	-0.694881356669616	0.0	0.9514588999482532	-0.7186651634500034	0.0	0.9447016311601386	-0.7223022056527163	0.0	0.9104393410702155	-0.7103966670151961	0.0	0.8142498602237052	-0.4917926402021124	0.0	0.8095690586063942	-0.6039832562420747	0.0	0.7625902548819845	-0.7014939271058059	0.0	0.7787343112512841	-0.7491352128280809	0.0	0.7725359088851572	-0.7420157717423592	0.0	0.7511738066667426	-0.7109862099408506	0.0	0.8077457379109584	-0.34990292186266925	0.0	0.8295325517335826	-0.283671297258511	0.0	0.8453821683759509	-0.32266191259802646	0.0	0.7970770586817613	-0.3579869309634625	0.0	0.7713283047834335	-0.3738497804547444	0.0	0.7820380638656087	-0.36504156479740796	0.0	0.8136750894745277	-0.36181576124664594	0.0	0.8164582477376442	-0.39088400753060865	0.0	0.8465189729079694	-0.3892352209773107	0.0
81	2.716981132075471	0.8140761040520034	-0.5061592396128688	0.0	0.8137628859281261	-0.5052617860078268	0.0	0.8684568408011564	-0.5998829649310544	0.0	0.9127966156880529	-0.7055451631391281	0.0	0.9503800747260056	-0.7274427271690599	0.0	0.944080569236136	-0.7313571463689236	0.0	0.9081271369601958	-0.7215503155576863	0.0	0.8087407807926329	-0.5040373115456676	0.0	0.8024313576511892	-0.6162386340140102	0.0	0.7546303304809016	-0.7138733190799356	0.0	0.7710309675667781	-0.7595104058643082	0.0	0.764293754086495	-0.7527666248436259	0.0	0.7432347884307049	-0.7242440305274394	0.0	0.8035589726024335	-0.36130013457725174	0.0	0.823440369430242	-0.29480500303342877	0.0	0.840381485675271	-0.3329636791565405	0.0	0.7917885275133628	-0.36994460842042953	0.0	0.7586139474934099	-0.3857392671512862	0.0	0.766823554506019	-0.37322887874481153	0.0	0.8092117322258788	-0.37277662872643386	0.0	0.8099494850419645	-0.3928316651738729	0.0	0.8371278317715024	-0.387644677156051	0.0
82	2.7505241090146746	0.8087165751280021	-0.522007233920988	0.0	0.8087722270039136	-0.5211553555024135	0.0	0.8653771408240509	-0.6139916583613344	0.0	0.9109285059514663	-0.719137453428369	0.0	0.9501241864750567	-0.7388590391273334	0.0	0.9441835516083825	-0.7431169501205765	0.0	0.9058345494938284	-0.7357638836855657	0.0	0.8032535764705735	-0.519785030291434	0.0	0.7958742416630343	-0.6316623831863653	0.0	0.7473973257002271	-0.7288906981256152	0.0	0.7646934483915365	-0.7701327565105974	0.0	0.7575577545729333	-0.7643190821845484	0.0	0.735990722440498	-0.7406149681437849	0.0	0.7997068794142086	-0.37614989599136883	0.0	0.8181713710032549	-0.309595851964938	0.0	0.8358812795455282	-0.3468210701599741	0.0	0.7868430400123779	-0.3853637540527407	0.0	0.7488100528492593	-0.40295636616016534	0.0	0.7511233170160351	-0.3901541819054671	0.0	0.804310908485012	-0.38703151987723516	0.0	0.8021930723520563	-0.39815203703018726	0.0	0.8237135783365795	-0.38963859953050495	0.0
83	2.784067085953878	0.8029402096539754	-0.5407193927158449	0.0	0.8033403125874736	-0.5399218415411239	0.0	0.8621675420788915	-0.6306416514775957	0.0	0.9089260051366019	-0.7350041241814175	0.0	0.9502995524240067	-0.7520994215429728	0.0	0.9447992160540369	-0.7567575598674265	0.0	0.9038038676930775	-0.7522265111931208	0.0	0.7978635797689869	-0.5385457493244754	0.0	0.7899427296435467	-0.6495448926463606	0.0	0.7410458866438049	-0.7459177378972597	0.0	0.7596402454422195	-0.7808102275357134	0.0	0.7519687576453337	-0.7762404096958203	0.0	0.7296789505832536	-0.7591641665553005	0.0	0.7963429821343327	-0.3939112476270685	0.0	0.8139446987378597	-0.32753589425992313	0.0	0.831916989793387	-0.36387128518590733	0.0	0.7827011799919142	-0.40387219449001366	0.0	0.7429784770171465	-0.42455444936826825	0.0	0.7353883998205738	-0.41561895775102997	0.0	0.7989407689551202	-0.40423161493149823	0.0	0.7928183785837174	-0.40748663875238156	0.0	0.8053149058419009	-0.3958431307441136	0.0
84	2.817610062893081	0.7970596016291047	-0.5612437864604486	0.0	0.7977166792241418	-0.5605536483549224	0.0	0.8588838318441393	-0.6489224271424919	0.0	0.906823886751109	-0.7521748126864249	0.0	0.9502140676591557	-0.7661144997139501	0.0	0.9453793735381727	-0.7712502730340173	0.0	0.9022449247595078	-0.7697679299955009	0.0	0.7926254906738529	-0.559336689141174	0.0	0.78470309872253	-0.6688348056764952	0.0	0.7356402826319505	-0.7641257334989714	0.0	0.7558518782115053	-0.7914572679848656	0.0	0.7472224849506949	-0.7881056606697401	0.0	0.7244519234627586	-0.7786560122630984	0.0	0.7935515153397973	-0.4136530301330442	0.0	0.8107748016983152	-0.3476610305148048	0.0	0.8284548734709211	-0.38319868528163153	0.0	0.7797750470265258	-0.4246163104391937	0.0	0.7407977623485609	-0.44923045662258815	0.0	0.7211059423929891	-0.4480155377329695	0.0	0.7931759071721447	-0.4236518309983585	0.0	0.7819779162837407	-0.42153271153935307	0.0	0.7830267495745193	-0.4067231699104937	0.0
85	2.8511530398322846	0.7914446339231326	-0.5820755177983808	0.0	0.7922065787892834	-0.5815734031739236	0.0	0.8556049367160927	-0.6676553407216624	0.0	0.9047518303844321	-0.7693865354289552	0.0	0.9494666515785444	-0.779938971935504	0.0	0.9454415761936985	-0.7856367831847315	0.0	0.9013271840702786	-0.7869698666582109	0.0	0.7876952397025707	-0.5806326337917298	0.0	0.780206929130397	-0.6882243224841871	0.0	0.7311515245211718	-0.7824222425960516	0.0	0.7532756384240136	-0.801833405629049	0.0	0.7432888765637378	-0.7994080250814677	0.0	0.7203230352793395	-0.797683071535356	0.0	0.7913023441599408	-0.4340396831054242	0.0	0.8084445293332283	-0.3685233289932082	0.0	0.8254650626531809	-0.40334107269670083	0.0	0.7781189059850285	-0.4462121527632979	0.0	0.740809239331546	-0.47560846933115963	0.0	0.7101021596334663	-0.4849492227504015	0.0	0.7874462474357736	-0.4441383841147118	0.0	0.7710697675897559	-0.440954353379128	0.0	0.7613589750493421	-0.4223601244912831	0.0
86	2.884696016771488	0.7864730513202851	-0.6013894247641108	0.0	0.7871092780441025	-0.6011998438502407	0.0	0.8524094143806263	-0.6853935700652675	0.0	0.9028964087579379	-0.7851741312628837	0.0	0.9481331949488202	-0.7926523660523881	0.0	0.9448323870983468	-0.7989377385531906	0.0	0.9010580835322994	-0.8023408311205263	0.0	0.7833934734070107	-0.6005545550627559	0.0	0.7765093062103491	-0.7061886551340038	0.0	0.72752173209558	-0.7994139049876419	0.0	0.7517002345836719	-0.8114606000655915	0.0	0.7403619657574059	-0.8095727750603262	0.0	0.7171969096454411	-0.8147062072030361	0.0	0.7894419114756055	-0.45341812653678737	0.0	0.8065922289573924	-0.3883131907131296	0.0	0.822954393129896	-0.4224838306416634	0.0	0.777220985450793	-0.4669240345455386	0.0	0.7415800881526954	-0.5022431625818358	0.0	0.7037773099982587	-0.52357071721923	0.0	0.7825626445358274	-0.4641183222467688	0.0	0.7626519605139588	-0.46550321130050015	0.0	0.7469953197323138	-0.4421018493010277	0.0
87	2.918238993710691	0.7824625648569365	-0.6173660025897412	0.0	0.7827293022540113	-0.6176250429394164	0.0	0.8493922319554288	-0.7005002120060347	0.0	0.9014095738257135	-0.7980632309036632	0.0	0.9466217761394411	-0.8032023110719411	0.0	0.9437523054367323	-0.8100034949398595	0.0	0.901200827944576	-0.8145166255494818	0.0	0.7800824134354248	-0.6172104898410394	0.0	0.7737023863821598	-0.721096188238335	0.0	0.7247070003159126	-0.813586763017403	0.0	0.7507203455587278	-0.8196391535248606	0.0	0.7385991362474329	-0.8179807634193674	0.0	0.7149615479948896	-0.8282587610462133	0.0	0.7877460082969683	-0.4699988436963243	0.0	0.8049007907436564	-0.405124043344207	0.0	0.8209314792469609	-0.4388270493947178	0.0	0.7761878145466656	-0.48495038250098793	0.0	0.7424129807940281	-0.5273783309316162	0.0	0.7027754929540311	-0.5606856253529947	0.0	0.7794025382763484	-0.4817368704910486	0.0	0.7591085813926557	-0.4929030720250602	0.0	0.7449365962897645	-0.464521841397663	0.0
